<svg width="48" height="48" viewBox="0 0 48 48" fill="none" xmlns="http://www.w3.org/2000/svg">
<g clip-path="url(#clip0_12_278)">
<path d="M37.5 10.5H10.5C8.01472 10.5 6 12.5147 6 15V36C6 38.4853 8.01472 40.5 10.5 40.5H37.5C39.9853 40.5 42 38.4853 42 36V15C42 12.5147 39.9853 10.5 37.5 10.5Z" stroke="white" stroke-width="2" stroke-linecap="round" stroke-linejoin="round"/>
<path d="M30.75 27H17.25C15.1789 27 13.5 28.6789 13.5 30.75C13.5 32.8211 15.1789 34.5 17.25 34.5H30.75C32.8211 34.5 34.5 32.8211 34.5 30.75C34.5 28.6789 32.8211 27 30.75 27Z" stroke="white" stroke-width="2" stroke-linecap="round" stroke-linejoin="round"/>
<path d="M27.75 27V34.5" stroke="white" stroke-width="2" stroke-linecap="round" stroke-linejoin="round"/>
<path d="M20.25 27V34.5" stroke="white" stroke-width="2" stroke-linecap="round" stroke-linejoin="round"/>
<path d="M24 10.5V3" stroke="white" stroke-width="2" stroke-linecap="round" stroke-linejoin="round"/>
<path d="M15.75 22.5C16.9926 22.5 18 21.4926 18 20.25C18 19.0074 16.9926 18 15.75 18C14.5074 18 13.5 19.0074 13.5 20.25C13.5 21.4926 14.5074 22.5 15.75 22.5Z" fill="white"/>
<path d="M32.25 22.5C33.4926 22.5 34.5 21.4926 34.5 20.25C34.5 19.0074 33.4926 18 32.25 18C31.0074 18 30 19.0074 30 20.25C30 21.4926 31.0074 22.5 32.25 22.5Z" fill="white"/>
</g>
<defs>
<clipPath id="clip0_12_278">
<rect width="48" height="48" fill="white"/>
</clipPath>
</defs>
</svg>
