<?xml version="1.0" standalone="no"?>
<!DOCTYPE svg PUBLIC "-//W3C//DTD SVG 20010904//EN"
 "http://www.w3.org/TR/2001/REC-SVG-20010904/DTD/svg10.dtd">
<svg version="1.0" xmlns="http://www.w3.org/2000/svg"
 width="350.000000pt" height="350.000000pt" viewBox="0 0 350.000000 350.000000"
 preserveAspectRatio="xMidYMid meet">
<metadata>
Created by potrace 1.11, written by Peter Selinger 2001-2013
</metadata>
<g transform="translate(0.000000,350.000000) scale(0.100000,-0.100000)"
fill="#000000" stroke="none">
<path d="M1336 3477 c-22 -12 -47 -33 -58 -47 -10 -14 -54 -124 -98 -245 -44
-121 -87 -236 -95 -255 -12 -29 -249 -682 -331 -910 -13 -36 -172 -472 -354
-970 -182 -498 -338 -929 -347 -957 -25 -82 -22 -83 177 -83 193 0 217 7 250
75 10 22 109 290 219 595 111 305 206 563 211 572 6 10 10 26 10 36 0 10 3 22
8 26 4 4 7 11 8 14 0 4 4 14 7 22 5 12 156 429 325 895 254 699 252 696 294
680 18 -7 27 -31 183 -460 64 -176 124 -342 135 -370 10 -27 49 -133 86 -235
36 -102 81 -226 99 -275 l33 -90 -422 0 c-231 1 -434 -2 -451 -7 -47 -12 -78
-55 -114 -158 -18 -52 -44 -123 -57 -157 -28 -73 -29 -77 -8 -97 14 -14 83
-16 613 -16 l598 0 31 -82 c17 -45 30 -84 27 -86 -2 -2 -296 -4 -652 -4 -634
0 -649 -1 -685 -21 -42 -23 -50 -39 -123 -245 -46 -126 -47 -133 -31 -151 17
-19 43 -19 837 -19 451 0 821 -1 823 -3 3 -4 52 -139 92 -254 29 -85 58 -138
87 -159 26 -19 42 -20 325 -21 368 -1 348 -9 296 132 -20 54 -39 109 -44 123
-4 14 -19 56 -34 94 -14 37 -26 72 -26 77 0 5 71 10 158 11 l157 3 3 39 c4 51
-88 318 -122 352 -32 31 -64 37 -208 38 -80 1 -148 3 -151 6 -2 3 -18 42 -34
86 l-30 81 136 1 c202 0 190 -1 197 27 6 23 0 47 -26 110 -5 11 -25 67 -46
125 -38 109 -62 145 -104 162 -14 6 -89 10 -168 9 l-143 0 -19 44 c-10 24 -26
63 -34 87 -8 24 -31 88 -51 143 -20 55 -53 147 -74 205 -115 319 -253 698
-261 715 -8 19 -65 176 -192 530 -71 197 -94 236 -153 265 -40 19 -59 20 -341
20 -289 -1 -301 -2 -338 -23z"/>
</g>
</svg>
