<svg width="151" height="31" viewBox="0 0 151 31" fill="none" xmlns="http://www.w3.org/2000/svg">
<path d="M23.6829 7.85079C22.5798 7.22467 21.2594 6.90948 19.7218 6.90948C18.9423 6.90948 18.1757 7.01171 17.4175 7.21615C16.6593 7.4206 15.9566 7.76986 15.3092 8.25542C14.6617 8.74098 14.1208 9.39691 13.6864 10.219H13.6523C13.2647 9.39691 12.745 8.74098 12.0934 8.25542C11.446 7.76986 10.7389 7.42486 9.98502 7.21615C9.22687 7.01171 8.46871 6.90948 7.71481 6.90948C6.15591 6.90948 4.82701 7.22467 3.72385 7.85079C2.62069 8.47691 1.77735 9.32451 1.19382 10.3808C0.610297 11.4414 0.316406 12.6084 0.316406 13.8862V23.853H3.30218V13.8862C3.30218 13.0642 3.4981 12.3188 3.8857 11.6458C4.27329 10.9771 4.80145 10.4447 5.46164 10.0571C6.12183 9.66951 6.86295 9.47358 7.685 9.47358C8.50704 9.47358 9.29076 9.67377 9.97225 10.0741C10.6537 10.4745 11.1947 11.0069 11.595 11.6629C11.9954 12.3231 12.1956 13.0642 12.1956 13.8862V23.853H15.1814V13.8862C15.1814 13.0642 15.3816 12.3231 15.7819 11.6629C16.1823 11.0027 16.7275 10.4745 17.4218 10.0741C18.116 9.67377 18.8699 9.47358 19.692 9.47358C20.514 9.47358 21.2892 9.66951 21.9494 10.0571C22.6096 10.449 23.1335 10.9771 23.5253 11.6458C23.9129 12.3188 24.1089 13.0642 24.1089 13.8862V23.853C25.7572 23.853 27.0946 22.5156 27.0946 20.8672V13.8862C27.0946 12.6084 26.8008 11.4414 26.2172 10.3808C25.6337 9.32025 24.7904 8.47691 23.6872 7.85079H23.6829Z" fill="#748FC9"/>
<path d="M30.792 23.8572H33.7778C33.7778 23.8572 33.8118 23.8444 33.8118 23.8231V7.30132H30.792V23.8572Z" fill="#748FC9"/>
<path d="M32.3164 0.644089C31.7755 0.644089 31.3027 0.844276 30.9023 1.24465C30.5019 1.64502 30.3018 2.11781 30.3018 2.65874C30.3018 3.19967 30.5019 3.67245 30.9023 4.07282C31.3027 4.4732 31.7712 4.67338 32.3164 4.67338C32.8616 4.67338 33.3259 4.4732 33.7305 4.07282C34.1351 3.67245 34.3311 3.20393 34.3311 2.65874C34.3311 2.11355 34.1309 1.64928 33.7305 1.24465C33.3301 0.844276 32.8573 0.644089 32.3164 0.644089Z" fill="#748FC9"/>
<path d="M49.2135 7.83793C48.055 7.22034 46.7176 6.91367 45.2055 6.91367C43.6935 6.91367 42.3816 7.22034 41.2145 7.83793C40.0475 8.45553 39.1317 9.31591 38.4716 10.4191C37.8114 11.5222 37.4834 12.8085 37.4834 14.2823V23.8572H40.4692V14.3121C40.4692 13.3154 40.6907 12.455 41.1336 11.7309C41.5766 11.0069 42.1601 10.4489 42.8885 10.057C43.6125 9.66943 44.3877 9.4735 45.2098 9.4735C46.0318 9.4735 46.807 9.66943 47.5311 10.057C48.2552 10.4489 48.8387 11.0026 49.2859 11.7309C49.7289 12.455 49.9504 13.3154 49.9504 14.3121V23.8572H52.9361V14.2823C52.9361 12.8128 52.6039 11.5222 51.948 10.4191C51.2878 9.31591 50.3806 8.45553 49.222 7.83793H49.2135Z" fill="#748FC9"/>
<path d="M69.7433 10.253H69.6794C69.3344 9.58429 68.8574 8.9965 68.2525 8.49817C67.6477 7.99983 66.9577 7.61223 66.191 7.33112C65.4244 7.05001 64.6151 6.90945 63.7718 6.90945C62.2554 6.90945 60.8882 7.25445 59.6658 7.94872C58.4434 8.64298 57.4808 9.61836 56.778 10.8876C56.0752 12.1526 55.7217 13.6519 55.7217 15.3855C55.7217 16.7484 55.9346 17.9794 56.3563 19.0697C56.778 20.1644 57.3658 21.0972 58.1239 21.8766C58.8821 22.6561 59.7808 23.2439 60.8201 23.6442C61.8593 24.0446 63.0051 24.2448 64.2616 24.2448C65.8844 24.2448 67.3283 23.8998 68.5933 23.2055C69.8583 22.5113 70.8635 21.5103 71.6131 20.2027C72.3585 18.8951 72.7333 17.3192 72.7333 15.4792V0.158463H69.7476V10.253H69.7433ZM68.9809 18.8227C68.4953 19.7299 67.8394 20.437 67.0173 20.9311C66.1953 21.4294 65.2753 21.6764 64.2573 21.6764C63.2393 21.6764 62.3151 21.4294 61.4803 20.9311C60.6454 20.4327 59.981 19.7299 59.4826 18.8227C58.9843 17.9155 58.7373 16.8336 58.7373 15.5771C58.7373 14.3206 58.98 13.3069 59.4656 12.3954C59.9512 11.4882 60.6114 10.7726 61.4462 10.253C62.281 9.73336 63.2053 9.47355 64.2232 9.47355C65.2412 9.47355 66.191 9.72484 67.0131 10.2189C67.8351 10.7173 68.4911 11.4243 68.9766 12.3443C69.4622 13.2643 69.705 14.3504 69.705 15.6069C69.705 16.8634 69.4622 17.9112 68.9766 18.8184L68.9809 18.8227Z" fill="#748FC9"/>
<path d="M90.8441 9.28184C90.086 8.50238 89.1873 7.9146 88.148 7.51423C87.1087 7.11385 85.963 6.91367 84.7065 6.91367C83.105 6.91367 81.6653 7.25867 80.3876 7.95293C79.1098 8.6472 78.1003 9.63962 77.3507 10.9387C76.6053 12.2378 76.2305 13.818 76.2305 15.6793V31C77.8788 31 79.2162 29.6626 79.2162 28.0142V20.9055H79.2801C79.6464 21.5529 80.1277 22.1321 80.724 22.6433C81.3203 23.1501 82.0018 23.5462 82.7685 23.8273C83.5352 24.1085 84.3444 24.249 85.1878 24.249C86.7254 24.249 88.0969 23.904 89.3108 23.2097C90.5204 22.5155 91.4788 21.5316 92.1816 20.2538C92.8844 18.976 93.2379 17.4852 93.2379 15.773C93.2379 14.41 93.0249 13.1834 92.6032 12.0887C92.1816 10.9941 91.5895 10.0613 90.8356 9.28184H90.8441ZM89.8773 18.7588C89.3917 19.666 88.7358 20.3816 87.9137 20.9012C87.0917 21.4208 86.1589 21.6807 85.1239 21.6807C84.0889 21.6807 83.1816 21.4336 82.3468 20.9353C81.512 20.4369 80.8518 19.7299 80.3662 18.8099C79.8807 17.8899 79.6379 16.8038 79.6379 15.5473C79.6379 14.2908 79.8807 13.243 80.3662 12.3315C80.8518 11.4243 81.512 10.7215 82.3468 10.2231C83.1816 9.7248 84.0931 9.47776 85.0898 9.47776C86.0865 9.47776 87.0321 9.72906 87.8669 10.2231C88.7017 10.7215 89.3662 11.4243 89.8645 12.3315C90.3628 13.2387 90.6099 14.3248 90.6099 15.5771C90.6099 16.8293 90.3671 17.8515 89.8815 18.7588H89.8773Z" fill="#748FC9"/>
<path d="M108.324 8.06375C107.016 7.29708 105.517 6.90948 103.826 6.90948C102.135 6.90948 100.644 7.29282 99.345 8.06375C98.0459 8.83043 97.0194 9.8697 96.2613 11.1816C95.5031 12.4892 95.124 13.9586 95.124 15.5814C95.124 17.2042 95.5031 18.6694 96.2613 19.9813C97.0194 21.2889 98.0459 22.3281 99.345 23.0991C100.644 23.8657 102.135 24.2533 103.826 24.2533C105.517 24.2533 107.012 23.87 108.324 23.0991C109.631 22.3324 110.662 21.2931 111.407 19.9813C112.153 18.6737 112.528 17.2042 112.528 15.5814C112.528 13.9586 112.153 12.4934 111.407 11.1816C110.662 9.87396 109.631 8.83469 108.324 8.06375ZM108.796 18.6779C108.319 19.5979 107.659 20.3305 106.816 20.8672C105.972 21.4081 104.989 21.6807 103.86 21.6807C102.731 21.6807 101.713 21.4124 100.857 20.8672C100.001 20.3263 99.3365 19.5979 98.8594 18.6779C98.3824 17.7579 98.1439 16.7272 98.1439 15.5772C98.1439 14.4271 98.3824 13.3964 98.8594 12.4764C99.3365 11.5564 100.001 10.828 100.857 10.2871C101.713 9.74618 102.714 9.47358 103.86 9.47358C105.006 9.47358 105.968 9.74618 106.816 10.2871C107.659 10.828 108.319 11.5606 108.796 12.4764C109.273 13.3964 109.512 14.4314 109.512 15.5772C109.512 16.7229 109.273 17.7579 108.796 18.6779Z" fill="#748FC9"/>
<path d="M115.317 23.8572H118.303C118.303 23.8572 118.337 23.8444 118.337 23.8231V7.30132H115.317V23.8572Z" fill="#748FC9"/>
<path d="M116.847 0.644089C116.306 0.644089 115.833 0.844276 115.433 1.24465C115.032 1.64502 114.832 2.11781 114.832 2.65874C114.832 3.19967 115.032 3.67245 115.433 4.07282C115.833 4.4732 116.301 4.67338 116.847 4.67338C117.392 4.67338 117.856 4.4732 118.261 4.07282C118.665 3.67245 118.861 3.20393 118.861 2.65874C118.861 2.11355 118.661 1.64928 118.261 1.24465C117.86 0.844276 117.388 0.644089 116.847 0.644089Z" fill="#748FC9"/>
<path d="M133.739 7.83793C132.58 7.22034 131.243 6.91367 129.731 6.91367C128.219 6.91367 126.907 7.22034 125.74 7.83793C124.573 8.45553 123.657 9.31591 122.997 10.4191C122.337 11.5222 122.009 12.8085 122.009 14.2823V23.8572H124.995V14.3121C124.995 13.3154 125.216 12.455 125.659 11.7309C126.102 11.0069 126.685 10.4489 127.414 10.057C128.138 9.66943 128.913 9.4735 129.735 9.4735C130.557 9.4735 131.332 9.66943 132.056 10.057C132.781 10.4489 133.364 11.0026 133.811 11.7309C134.254 12.455 134.476 13.3154 134.476 14.3121V23.8572H137.462V14.2823C137.462 12.8128 137.129 11.5222 136.473 10.4191C135.813 9.31591 134.906 8.45553 133.747 7.83793H133.739Z" fill="#748FC9"/>
<path d="M150.768 9.86531V7.30121H145.086V3.14413H142.1V4.9373C142.1 6.24064 141.044 7.30121 139.736 7.30121H139.242V9.86531H142.1V19.1506C142.1 20.5987 142.518 21.7488 143.348 22.5921C144.183 23.4354 145.333 23.8571 146.807 23.8571H150.704V21.293H147.36C146.645 21.293 146.087 21.08 145.691 20.6584C145.29 20.2367 145.09 19.6702 145.09 18.9546V12.0716C145.09 10.8535 146.078 9.86531 147.297 9.86531H150.772H150.768Z" fill="#748FC9"/>
</svg>
