<svg width="159" height="90" viewBox="0 0 159 90" fill="none" xmlns="http://www.w3.org/2000/svg">
<path d="M53.0185 51.9709L71.3182 1.76239C71.7101 0.704956 72.7289 0 73.8653 0H81.7416C82.878 0 83.8969 0.704956 84.2887 1.76239L94.7121 30.3914H98.7483C99.5712 30.3914 100.316 30.9006 100.59 31.6839L102.197 36.1094C102.353 36.5402 102.04 36.971 101.57 36.971H97.1025L98.0821 39.595H102.118C102.941 39.595 103.686 40.1042 103.96 40.8875L105.567 45.313C105.723 45.7438 105.41 46.1746 104.94 46.1746H100.472L102.549 51.8926C102.706 52.3234 102.393 52.7542 101.922 52.7542H93.7717C92.9488 52.7542 92.2042 52.2451 91.9299 51.4618L90.0098 46.1355H65.362C64.8918 46.1355 64.5783 45.6655 64.735 45.2738L66.3416 40.8483C66.6159 40.065 67.3605 39.5559 68.1834 39.5559H87.5803L86.6007 36.9319H68.6928C68.2226 36.9319 67.9091 36.4619 68.0658 36.0703L69.6724 31.6447C69.9467 30.8614 70.6913 30.3523 71.5142 30.3523H84.1712L76.4516 9.12526C76.2556 8.5378 75.4327 8.5378 75.1976 9.12526L59.7584 51.5401C59.4841 52.3234 58.7396 52.8325 57.9167 52.8325H53.6455C53.1752 52.8717 52.8617 52.4017 53.0185 51.9709Z" fill="url(#paint0_linear)"/>
<path d="M40.9885 84.7127C40.5967 85.4177 40.2048 86.1618 39.8521 86.8668V89.8824H38.6374V86.8668C38.2455 86.1226 37.8537 85.4177 37.501 84.7127C37.1091 84.0078 36.7565 83.2637 36.3646 82.5587H37.7361L38.6374 84.3602C38.7549 84.5952 38.8725 84.8302 38.9509 85.0652C39.0684 85.3002 39.1468 85.5352 39.2643 85.7702H39.3035L39.9697 84.3211L40.8318 82.5195H42.2033C41.7722 83.2637 41.3804 84.0078 40.9885 84.7127Z" fill="#EF7D00"/>
<path d="M44.3968 84.6345C44.7886 84.6345 45.1413 84.7128 45.4548 84.8695C45.7683 85.0262 46.0034 85.222 46.1993 85.5353C46.3169 85.7311 46.4344 86.0053 46.5128 86.2794C46.5912 86.5536 46.5912 86.906 46.5912 87.2585C46.5912 87.6502 46.552 88.0026 46.5128 88.2768C46.4344 88.5509 46.3561 88.8251 46.2385 89.0209C46.0426 89.3342 45.7683 89.6084 45.4156 89.765C45.0629 89.9217 44.6711 90 44.2792 90C43.8874 90 43.5347 89.9217 43.2212 89.8042C42.9077 89.6867 42.6726 89.4517 42.4767 89.1776C42.2024 88.7468 42.0456 88.1201 42.0456 87.2977C42.0456 87.0235 42.0456 86.7494 42.0848 86.4752C42.124 86.2403 42.2024 86.0053 42.2807 85.8094C42.4767 85.4178 42.751 85.1437 43.1036 84.9087C43.4955 84.7128 43.9265 84.6345 44.3968 84.6345ZM44.3576 85.692C44.1616 85.692 43.9657 85.7311 43.809 85.8486C43.6522 85.9661 43.5347 86.0836 43.4563 86.2794C43.3779 86.4361 43.3388 86.5927 43.3388 86.7494C43.2996 86.906 43.2996 87.1019 43.2996 87.2977C43.2996 87.4935 43.2996 87.6893 43.3388 87.846C43.3779 88.0026 43.4171 88.1593 43.4563 88.2768C43.5347 88.4726 43.6522 88.5901 43.809 88.7076C43.9657 88.8251 44.1616 88.8643 44.3576 88.8643C44.5927 88.8643 44.7886 88.7859 44.9454 88.6684C45.1413 88.5509 45.2588 88.3551 45.3372 88.1201C45.3764 88.0026 45.4156 87.8852 45.4156 87.7677C45.4156 87.611 45.4548 87.4152 45.4548 87.2194C45.4548 86.8277 45.4156 86.5144 45.298 86.3186C45.2197 86.1228 45.1021 85.9661 44.9454 85.8486C44.7102 85.7311 44.5535 85.692 44.3576 85.692Z" fill="#EF7D00"/>
<path d="M48.9433 84.6736V87.7676C48.9433 88.12 49.0216 88.3942 49.1784 88.5508C49.3351 88.7075 49.5702 88.825 49.9229 88.825C50.1972 88.825 50.4323 88.7467 50.6282 88.5508C50.8242 88.355 50.9025 88.12 50.9025 87.7676V84.6736H52.0781V89.9216H50.9025V89.4125H50.8634C50.7066 89.6083 50.5107 89.7649 50.2364 89.8433C50.0013 89.9216 49.7662 89.9999 49.531 89.9999C48.9824 89.9999 48.5514 89.8433 48.2379 89.5299C47.9244 89.2166 47.7285 88.7467 47.7285 88.12V84.6736H48.9433Z" fill="#EF7D00"/>
<path d="M55.644 85.7311C55.3697 85.7311 55.1345 85.8094 54.9386 86.0053C54.7427 86.2011 54.6643 86.4361 54.6643 86.7886V89.9217H53.4887V84.6737H54.6643V85.3003H54.7035C55.017 84.8303 55.448 84.6345 55.9574 84.6345C56.1534 84.6345 56.3493 84.6737 56.506 84.7128C56.6628 84.752 56.8195 84.8303 56.9763 84.9087L56.5452 86.0053C56.3885 85.9269 56.2709 85.8486 56.1142 85.8094C55.9183 85.7703 55.8007 85.7311 55.644 85.7311Z" fill="#EF7D00"/>
<path d="M62.4623 84.6345C62.8542 84.6345 63.2069 84.7128 63.5203 84.8695C63.8338 85.0262 64.0689 85.222 64.2649 85.5353C64.3824 85.7311 64.5 86.0053 64.5784 86.2794C64.6567 86.5536 64.6567 86.906 64.6567 87.2585C64.6567 87.6502 64.6175 88.0026 64.5784 88.2768C64.5 88.5509 64.4216 88.8251 64.3041 89.0209C64.1081 89.3342 63.8338 89.6084 63.4812 89.765C63.1285 89.9217 62.7366 90 62.3448 90C61.9529 90 61.6002 89.9217 61.2868 89.8042C60.9733 89.6867 60.7382 89.4517 60.5422 89.1776C60.2679 88.7468 60.1112 88.1201 60.1112 87.2977C60.1112 87.0235 60.1112 86.7494 60.1504 86.4752C60.1896 86.2403 60.2679 86.0053 60.3463 85.8094C60.5422 85.4178 60.8165 85.1437 61.1692 84.9087C61.5611 84.7128 61.9921 84.6345 62.4623 84.6345ZM62.4231 85.692C62.2272 85.692 62.0313 85.7311 61.8745 85.8486C61.7178 85.9661 61.6002 86.0836 61.5219 86.2794C61.4435 86.4361 61.4043 86.5927 61.4043 86.7494C61.3651 86.906 61.3651 87.1019 61.3651 87.2977C61.3651 87.4935 61.3651 87.6893 61.4043 87.846C61.4435 88.0026 61.4827 88.1593 61.5219 88.2768C61.6002 88.4726 61.7178 88.5901 61.8745 88.7076C62.0313 88.8251 62.2272 88.8643 62.4231 88.8643C62.6583 88.8643 62.8542 88.7859 63.0109 88.6684C63.2069 88.5509 63.3244 88.3551 63.4028 88.1201C63.442 88.0026 63.4812 87.8852 63.4812 87.7677C63.4812 87.611 63.5203 87.4152 63.5203 87.2194C63.5203 86.8277 63.4812 86.5144 63.3636 86.3186C63.2852 86.1228 63.1677 85.9661 63.0109 85.8486C62.815 85.7311 62.6191 85.692 62.4231 85.692Z" fill="#EF7D00"/>
<path d="M68.9676 89.9217V86.8277C68.9676 86.4752 68.8892 86.2402 68.7325 86.0444C68.5757 85.8486 68.3406 85.7703 67.9879 85.7703C67.7136 85.7703 67.4393 85.8486 67.2826 86.0444C67.0867 86.2402 67.0083 86.4752 67.0083 86.8277V89.9217H65.8327V84.6737H67.0083V85.222H67.0475C67.2042 85.0262 67.4393 84.8695 67.6744 84.7912C67.9096 84.6737 68.1839 84.6345 68.419 84.6345C68.9676 84.6345 69.3986 84.7912 69.7121 85.1045C70.0256 85.4178 70.1823 85.8878 70.1823 86.4752V89.9217H68.9676Z" fill="#EF7D00"/>
<path d="M72.9641 89.9218C72.7682 89.9218 72.5723 89.8826 72.3763 89.8435C72.2196 89.8043 72.0628 89.726 71.9061 89.6085C71.7885 89.491 71.671 89.3735 71.5926 89.1777C71.5142 88.9819 71.4751 88.786 71.4751 88.5119V82.2456H72.6898V88.3552C72.6898 88.5511 72.729 88.6685 72.8074 88.7469C72.8857 88.8252 73.0033 88.8644 73.1992 88.8644H73.3952V89.9218H72.9641Z" fill="#EF7D00"/>
<path d="M74.3754 83.6554V82.5588H75.551V83.6554H74.3754ZM74.3754 89.9217V84.6737H75.551V89.9217H74.3754Z" fill="#EF7D00"/>
<path d="M80.1348 89.9217V86.8277C80.1348 86.4752 80.0565 86.2402 79.8997 86.0444C79.743 85.8486 79.5079 85.7703 79.1552 85.7703C78.8809 85.7703 78.6458 85.8486 78.4499 86.0444C78.2539 86.2402 78.1756 86.4752 78.1756 86.8277V89.9217H76.9608V84.6737H78.1756V85.222H78.2147C78.3715 85.0262 78.6066 84.8695 78.8417 84.7912C79.0768 84.6737 79.3511 84.6345 79.5862 84.6345C80.1348 84.6345 80.5659 84.7912 80.8794 85.1045C81.1928 85.4178 81.3496 85.8878 81.3496 86.4752V89.9217H80.1348Z" fill="#EF7D00"/>
<path d="M83.6226 87.6496C83.6226 87.8063 83.6618 87.963 83.701 88.1196C83.7402 88.2763 83.8185 88.3938 83.8969 88.5113C83.9753 88.6287 84.0928 88.7071 84.2496 88.7854C84.4063 88.8637 84.5631 88.9029 84.759 88.9029C84.9157 88.9029 85.1117 88.8637 85.3468 88.7854C85.5819 88.7071 85.817 88.5896 86.0129 88.3938C86.1305 88.5504 86.2481 88.6679 86.3656 88.8246C86.4832 88.9812 86.6007 89.0987 86.7183 89.2554C86.4048 89.5295 86.0913 89.7253 85.7386 89.8428C85.386 89.9603 85.0725 89.9995 84.7198 89.9995C84.4455 89.9995 84.1712 89.9603 83.8969 89.882C83.6226 89.8037 83.3875 89.647 83.1524 89.4512C82.9173 89.2554 82.7605 88.9812 82.6038 88.6287C82.447 88.2763 82.4078 87.8455 82.4078 87.2972C82.4078 86.788 82.4862 86.3572 82.6038 86.0047C82.7605 85.6523 82.9173 85.3781 83.1524 85.1823C83.3875 84.9865 83.6226 84.8298 83.8969 84.7123C84.1712 84.634 84.4455 84.5557 84.7198 84.5557C85.0725 84.5557 85.386 84.634 85.6603 84.7515C85.9346 84.869 86.1697 85.0256 86.3656 85.2606C86.5615 85.4956 86.7183 85.7306 86.7967 86.0439C86.9142 86.3572 86.9534 86.7097 86.9534 87.0622V87.5713H83.6226V87.6496ZM84.6414 85.6914C84.3671 85.6914 84.132 85.7698 83.9361 85.9656C83.7402 86.1614 83.6618 86.4356 83.6226 86.788H85.6211C85.5819 86.4356 85.5035 86.1614 85.3076 85.9656C85.1509 85.8089 84.9157 85.6914 84.6414 85.6914Z" fill="#EF7D00"/>
<path d="M95.1432 87.1803C95.1432 87.4936 95.104 87.8069 95.0649 88.1202C95.0257 88.4336 94.9473 88.7469 94.7906 89.021C94.673 89.2952 94.4771 89.491 94.2028 89.6868C93.9677 89.8435 93.615 89.961 93.2231 89.961C92.988 89.961 92.7529 89.9218 92.5178 89.8435C92.2827 89.7651 92.0867 89.6085 91.93 89.4127H91.8908V89.9218H90.6761V82.2456H91.8908V85.1829H91.93C92.1259 84.9871 92.3219 84.8696 92.557 84.7521C92.7921 84.6738 93.0272 84.6346 93.2231 84.6346C93.615 84.6346 93.9285 84.713 94.1636 84.8696C94.3987 85.0263 94.5946 85.2221 94.7514 85.4962C94.8689 85.7312 94.9865 86.0054 95.0257 86.3187C95.104 86.5928 95.1432 86.9062 95.1432 87.1803ZM93.8893 87.2978C93.8893 87.102 93.8893 86.9453 93.8501 86.7495C93.8501 86.5537 93.7717 86.397 93.7325 86.2404C93.6542 86.0837 93.5758 85.9662 93.4191 85.8879C93.3015 85.8096 93.1056 85.7312 92.8705 85.7312C92.6353 85.7312 92.4786 85.7704 92.361 85.8879C92.2435 86.0054 92.1259 86.1229 92.0476 86.2795C91.9692 86.4362 91.93 86.5928 91.93 86.7887C91.8908 86.9845 91.8908 87.1411 91.8908 87.2978C91.8908 87.4544 91.8908 87.6503 91.93 87.8069C91.93 88.0027 92.0084 88.1594 92.0476 88.3161C92.1259 88.4727 92.2043 88.5902 92.361 88.7077C92.4786 88.8252 92.6745 88.8644 92.9096 88.8644C93.1448 88.8644 93.3015 88.8252 93.4582 88.7077C93.5758 88.5902 93.6934 88.4727 93.7717 88.3161C93.8501 88.1594 93.8893 88.0027 93.8893 87.8069C93.8893 87.6503 93.8893 87.4544 93.8893 87.2978Z" fill="#EF7D00"/>
<path d="M98.4736 85.7311C98.1993 85.7311 97.9642 85.8094 97.7683 86.0053C97.5723 86.2011 97.494 86.4361 97.494 86.7886V89.9217H96.3184V84.6737H97.494V85.3003H97.5331C97.8466 84.8303 98.2777 84.6345 98.7871 84.6345C98.983 84.6345 99.1789 84.6737 99.3357 84.7128C99.4924 84.752 99.6492 84.8303 99.8059 84.9087L99.3749 86.0053C99.2181 85.9269 99.1006 85.8486 98.9438 85.8094C98.7479 85.7703 98.6303 85.7311 98.4736 85.7311Z" fill="#EF7D00"/>
<path d="M102.353 84.6345C102.745 84.6345 103.097 84.7128 103.411 84.8695C103.724 85.0262 103.96 85.222 104.155 85.5353C104.273 85.7311 104.391 86.0053 104.469 86.2794C104.547 86.5536 104.547 86.906 104.547 87.2585C104.547 87.6502 104.508 88.0026 104.469 88.2768C104.391 88.5509 104.312 88.8251 104.195 89.0209C103.999 89.3342 103.724 89.6084 103.372 89.765C103.019 89.9217 102.627 90 102.235 90C101.843 90 101.491 89.9217 101.177 89.8042C100.864 89.6867 100.629 89.4517 100.433 89.1776C100.158 88.7468 100.002 88.1201 100.002 87.2977C100.002 87.0235 100.002 86.7494 100.041 86.4752C100.08 86.2403 100.158 86.0053 100.237 85.8094C100.433 85.4178 100.707 85.1437 101.06 84.9087C101.452 84.7128 101.883 84.6345 102.353 84.6345ZM102.314 85.692C102.118 85.692 101.922 85.7311 101.765 85.8486C101.608 85.9661 101.491 86.0836 101.373 86.2794C101.295 86.4361 101.256 86.5927 101.256 86.7494C101.217 86.906 101.217 87.1019 101.217 87.2977C101.217 87.4935 101.217 87.6893 101.256 87.846C101.295 88.0026 101.334 88.1593 101.373 88.2768C101.452 88.4726 101.569 88.5901 101.726 88.7076C101.883 88.8251 102.079 88.8643 102.275 88.8643C102.51 88.8643 102.706 88.7859 102.862 88.6684C103.058 88.5509 103.176 88.3551 103.254 88.1201C103.293 88.0026 103.333 87.8852 103.333 87.7677C103.333 87.611 103.372 87.4152 103.372 87.2194C103.372 86.8277 103.333 86.5144 103.215 86.3186C103.137 86.1228 103.019 85.9661 102.862 85.8486C102.706 85.7311 102.51 85.692 102.314 85.692Z" fill="#EF7D00"/>
<path d="M109.211 89.9218C108.937 89.5302 108.701 89.1385 108.427 88.7469C108.192 88.3552 107.918 87.9636 107.643 87.5719C107.526 87.6894 107.408 87.8461 107.291 87.9636C107.173 88.0811 107.056 88.2377 106.938 88.3552V89.8826H105.723V82.2456H106.938V86.8278H106.977L107.996 85.6529L108.897 84.6738H110.347L108.466 86.7103C108.819 87.2586 109.172 87.7678 109.524 88.3161C109.877 88.8644 110.23 89.3735 110.582 89.9218H109.211Z" fill="#EF7D00"/>
<path d="M112.149 87.6496C112.149 87.8063 112.188 87.963 112.228 88.1196C112.267 88.2763 112.345 88.3938 112.424 88.5113C112.502 88.6287 112.62 88.7071 112.776 88.7854C112.933 88.8637 113.09 88.9029 113.286 88.9029C113.442 88.9029 113.638 88.8637 113.873 88.7854C114.109 88.7071 114.344 88.5896 114.54 88.3938C114.657 88.5504 114.775 88.6679 114.892 88.8246C115.01 88.9812 115.127 89.0987 115.245 89.2554C114.931 89.5295 114.618 89.7253 114.265 89.8428C113.913 89.9603 113.599 89.9995 113.246 89.9995C112.972 89.9995 112.698 89.9603 112.424 89.882C112.149 89.8037 111.914 89.647 111.679 89.4512C111.444 89.2554 111.287 88.9812 111.13 88.6287C111.013 88.2763 110.935 87.8455 110.935 87.2972C110.935 86.788 111.013 86.3572 111.13 86.0047C111.287 85.6523 111.444 85.3781 111.679 85.1823C111.914 84.9865 112.149 84.8298 112.424 84.7123C112.698 84.634 112.972 84.5557 113.246 84.5557C113.599 84.5557 113.913 84.634 114.187 84.7515C114.461 84.869 114.696 85.0256 114.892 85.2606C115.088 85.4956 115.245 85.7306 115.323 86.0439C115.441 86.3572 115.48 86.7097 115.48 87.0622V87.5713H112.149V87.6496ZM113.168 85.6914C112.894 85.6914 112.659 85.7698 112.463 85.9656C112.267 86.1614 112.188 86.4356 112.149 86.788H114.148C114.109 86.4356 114.03 86.1614 113.834 85.9656C113.678 85.8089 113.442 85.6914 113.168 85.6914Z" fill="#EF7D00"/>
<path d="M118.812 85.7311C118.538 85.7311 118.302 85.8094 118.106 86.0053C117.911 86.2011 117.832 86.4361 117.832 86.7886V89.9217H116.617V84.6737H117.793V85.3003H117.832C118.146 84.8303 118.577 84.6345 119.086 84.6345C119.282 84.6345 119.478 84.6737 119.635 84.7128C119.791 84.752 119.948 84.8303 120.105 84.9087L119.674 86.0053C119.517 85.9269 119.4 85.8486 119.243 85.8094C119.086 85.7703 118.929 85.7311 118.812 85.7311Z" fill="#EF7D00"/>
<path d="M24.8821 68.7332C24.8821 69.8298 23.9808 70.7306 22.8836 70.7306C21.7864 70.7306 20.8852 69.8298 20.8852 68.7332C20.8852 67.6366 21.7864 66.7358 22.8836 66.7358C24.02 66.7358 24.8821 67.6366 24.8821 68.7332Z" fill="#171717"/>
<path d="M11.8341 75.8238C11.8341 75.8238 12.8921 74.688 12.8921 74.4531C12.8921 74.2964 12.8529 74.0614 12.7746 73.7481C12.6962 73.3956 11.5206 69.9883 11.2855 69.3617H4.74148C4.50636 69.9883 3.64428 72.0249 3.40916 72.6123C3.05649 73.4739 2.743 74.5705 2.89975 74.688C3.0173 74.8447 4.15369 75.8238 4.15369 75.8238H0C0 75.8238 1.0972 74.923 1.17557 74.8447C1.29313 74.7272 1.48906 74.4531 1.72417 74.0222C1.99847 73.5914 7.24937 61.1372 7.64122 60.2364L7.48448 59.884C7.75878 59.7665 9.56133 57.9649 9.6397 57.8474H9.79644C10.3059 59.2182 15.7527 73.5523 15.9486 73.9831C15.9878 74.0614 17.5944 75.7846 17.5944 75.7846H11.8341V75.8238ZM8.07227 61.2155C7.95471 61.4114 5.44682 67.6385 5.05496 68.5784H10.972C10.6977 67.8343 10.4234 67.1293 10.1099 66.3852C9.83563 65.6411 9.56133 64.9361 9.28703 64.2704C9.01272 63.6046 8.77761 62.9779 8.5425 62.4296C8.30738 61.8422 8.18982 61.568 8.07227 61.2155Z" fill="#171717"/>
<path d="M62.8146 75.8226C62.8146 75.8226 63.8726 74.6868 63.8726 74.4518C63.8726 74.2952 63.8334 74.0602 63.7551 73.7469C63.6767 73.3944 62.5011 69.9871 62.266 69.3605H55.7612C55.5261 69.9871 54.664 72.0236 54.4289 72.6111C54.0762 73.4727 53.7627 74.5693 53.9194 74.6868C54.037 74.8435 55.1734 75.8226 55.1734 75.8226H51.0589C51.0589 75.8226 52.1561 74.9218 52.2345 74.8435C52.352 74.726 52.5479 74.4518 52.7831 74.021C53.0574 73.5902 58.3082 61.136 58.7001 60.2352L58.5434 59.8827C58.8177 59.7652 60.6202 57.9637 60.6986 57.8462H60.8945C61.4039 59.2169 66.8507 73.5511 67.0467 73.9819C67.0859 74.0602 68.6925 75.7834 68.6925 75.7834H62.8146V75.8226ZM59.0136 61.2143C58.896 61.4101 56.3881 67.6373 55.9963 68.5772H61.9133C61.639 67.8331 61.3647 67.1281 61.0512 66.384C60.7769 65.6399 60.5026 64.9349 60.2283 64.2691C59.954 63.6033 59.7189 62.9767 59.4838 62.4284C59.2879 61.8409 59.1703 61.5668 59.0136 61.2143Z" fill="#171717"/>
<path d="M42.2818 75.8227C42.2818 75.8227 43.9668 74.5694 44.1236 74.2169C44.2019 74.0211 44.2803 73.747 44.3587 73.4337C44.3979 73.1203 44.5154 60.0003 44.5154 60.0003C43.9668 61.2144 37.5012 75.3527 37.462 75.431H37.3052C36.7958 74.2169 30.5261 60.0395 30.4477 59.8437C30.4477 60.9011 30.4086 72.2587 30.4869 72.807C30.5261 73.3553 30.6437 73.8253 30.8396 74.2169C31.0355 74.6086 32.5246 75.8227 32.5246 75.8227H27.7047C27.7047 75.8227 28.8411 74.5694 29.0371 74.1778C29.233 73.7861 29.3897 73.3162 29.5073 72.7287C29.6248 72.1412 29.7816 61.2536 29.7424 60.7836C29.7424 60.3136 29.6248 59.9612 29.4681 59.687C29.2722 59.4129 28.2533 58.2771 28.2533 58.2771H32.7205L38.4024 71.1621C39.1078 69.5956 44.3979 58.3946 44.4762 58.2771H48.9826C48.9826 58.2771 47.5719 59.4912 47.4544 59.8828C47.3368 60.157 47.2976 60.5878 47.2584 61.1753C47.2192 61.7627 47.2192 73.3945 47.2584 73.7078C47.2976 74.0211 47.376 74.2561 47.4544 74.4519C47.4544 74.4911 49.1393 75.8618 49.1393 75.8618H42.2818V75.8227Z" fill="#171717"/>
<path d="M83.7405 75.8223C83.5838 75.6657 83.5054 75.5482 83.427 75.509C83.3487 75.4307 83.2703 75.3524 83.1919 75.2349C83.1135 75.1174 82.996 74.9999 82.8784 74.8041C82.7609 74.6083 82.5649 74.3341 82.2906 73.9425C81.9772 73.4725 81.7029 73.0809 81.4677 72.7284C81.2326 72.3759 80.9975 71.9843 80.7624 71.6318C80.5273 71.2793 80.253 70.9268 79.9787 70.5352C79.7044 70.1827 79.3517 69.7519 78.9599 69.2819C78.6464 68.8903 78.2937 68.577 77.9018 68.2245C77.51 67.9112 77.1181 67.6762 76.6871 67.5979C76.3736 67.5195 76.1385 67.5195 75.9817 67.5195C75.825 67.5195 75.6291 67.5195 75.4331 67.4804C75.4331 68.5378 75.4723 73.1983 75.5115 73.5508C75.5115 73.9425 75.6291 74.2166 75.7858 74.4908C75.9034 74.6866 77.2357 75.744 77.2357 75.744H70.9268C70.9268 75.744 72.1024 74.8824 72.3375 74.6083C72.4158 74.5299 72.4942 74.3733 72.5334 74.1774C72.5726 73.9816 72.7293 60.6266 72.7293 60.3525C72.6901 60.0783 72.651 59.8433 72.6118 59.6084C72.5726 59.3734 72.4942 59.2167 72.3767 59.1384C72.1415 58.8642 71.2011 58.1201 71.2011 58.1201C71.3186 58.1201 79.2342 58.1201 80.0571 58.1985C80.9191 58.2768 81.6637 58.4726 82.369 58.8642C83.0744 59.2559 83.6622 59.765 84.0932 60.3916C84.5242 61.0183 84.7593 61.8407 84.7593 62.8198C84.7593 63.4073 84.6418 63.9556 84.4459 64.4256C84.2107 64.8955 83.9365 65.3263 83.5838 65.6788C83.2311 66.0313 82.8001 66.3446 82.2906 66.6188C81.8204 66.8929 81.2718 67.0887 80.7624 67.2845V67.3629C81.0367 67.5195 81.311 67.7154 81.5853 67.9895C81.8596 68.2637 82.0947 68.577 82.3298 68.9294C82.7609 69.5561 83.2311 70.2219 83.7013 70.9268C84.2108 71.6318 84.6418 72.2976 85.0336 72.8459C85.6214 73.7075 86.2092 74.2949 86.797 74.6866C87.3848 75.0782 88.4036 75.7049 88.4036 75.7049H83.7405V75.8223ZM81.311 60.5875C80.9191 59.9608 80.2922 59.4517 79.5085 59.0601C79.1166 58.8642 78.2153 58.8251 77.8627 58.8251C77.4316 58.8251 75.5507 58.8251 75.5507 58.9034C75.5507 58.9817 75.5115 59.0601 75.5115 59.1776C75.5115 59.295 75.5115 59.4517 75.4723 59.6475C75.4723 59.8433 75.4331 60.1567 75.4331 60.5091C75.4331 61.0966 75.394 65.7571 75.394 66.2663C75.394 66.7362 75.394 66.7754 75.394 66.8929C76.0601 66.8929 78.4113 66.9321 78.9207 66.7362C79.4301 66.5796 79.9003 66.3446 80.253 66.0705C80.6448 65.7963 80.9192 65.483 81.1543 65.1305C81.3894 64.778 81.5853 64.3864 81.6637 63.9948C81.7812 63.6031 81.8204 63.1723 81.8204 62.7415C81.8988 61.9582 81.7029 61.2533 81.311 60.5875Z" fill="#171717"/>
<path d="M102.784 75.8225C102.706 75.7834 102.627 75.7442 102.549 75.705C102.47 75.6659 102.392 75.5484 102.275 75.4309C101.216 74.2168 100.237 73.081 99.2964 71.9844C98.3559 70.8878 97.3763 69.7912 96.3575 68.6946C95.9264 68.2247 95.6521 67.9114 95.4954 67.833C95.3386 67.7155 95.2211 67.6764 95.1035 67.6764C94.986 67.6764 94.8684 67.7155 94.8292 67.7547C94.79 67.7939 94.7508 67.9114 94.7117 68.0289C94.7117 68.8905 94.7117 69.6737 94.7117 70.457C94.7117 71.2012 94.7117 71.8669 94.7508 72.3761C94.7508 72.8461 94.79 73.2769 94.8684 73.7077C94.9076 74.0993 95.0251 74.4126 95.1819 74.6476C95.2994 74.8043 95.4562 74.9609 95.6521 75.0784C95.848 75.1959 97.0628 75.8617 97.0628 75.8617H90.0486C90.0486 75.8617 91.4984 75.0001 91.6944 74.8043C91.7727 74.6868 91.8511 74.5693 91.8903 74.3735C91.9295 74.1776 91.9687 73.9426 92.0078 73.7077C92.047 73.4727 92.047 73.1985 92.047 72.8852C92.047 72.6111 92.047 72.3369 92.047 72.0628C92.047 71.8278 92.047 71.5145 92.047 71.1228C92.047 70.7312 92.047 70.3004 92.047 69.8696C92.047 69.3996 92.047 68.9296 92.047 68.4205C92.047 67.9114 92.047 67.4414 92.047 67.0106V62.2325C92.047 61.6059 92.0078 61.0576 91.9687 60.5093C91.9295 60.0002 91.8119 59.6085 91.6552 59.3736C91.4201 59.0994 90.0486 58.2378 90.0486 58.2378H96.8669C96.8669 58.2378 95.8089 58.7861 95.5737 58.9819C95.3386 59.1777 95.1427 59.4519 94.986 59.8435C94.8292 60.2352 94.7508 60.7443 94.7117 61.4493C94.7117 61.8409 94.6725 62.1934 94.6725 62.5067C94.6725 62.82 94.6725 63.2117 94.6725 63.6425C94.6725 64.0733 94.6725 64.5824 94.6725 65.1699C94.6725 65.7573 94.6725 66.149 94.6725 67.0497C94.9468 66.8539 100.981 61.2534 101.177 60.901C101.412 60.5485 101.491 60.2352 101.491 59.961C101.491 59.4911 100.354 58.277 100.354 58.277H106.193C106.193 58.277 104.9 58.9428 104.038 59.5694C103.176 60.196 102.314 60.901 101.452 61.7234C101.099 62.0367 100.746 62.35 100.394 62.7417C100.041 63.0942 99.6883 63.4466 99.3356 63.7991C98.9829 64.1516 98.6302 64.5041 98.3167 64.8566C97.9641 65.209 97.6898 65.5223 97.4155 65.7965C97.533 65.9531 97.8465 66.3056 98.3167 66.8539C98.787 67.4022 99.3356 68.0289 100.002 68.773C100.668 69.5171 101.334 70.3004 102.079 71.1228C102.823 71.9453 103.528 72.7677 104.234 73.5118C104.391 73.7077 104.586 73.9035 104.782 74.0993C104.978 74.2951 105.213 74.4518 105.409 74.6084C105.605 74.7651 105.762 74.8826 105.919 75.0001C106.076 75.1176 106.154 75.1959 106.193 75.1959C106.389 75.2742 107.408 75.8617 107.408 75.8617H102.784V75.8225Z" fill="#171717"/>
<path d="M124.063 75.8225H109.603C109.603 75.8225 110.857 74.9218 111.092 74.6476C111.17 74.5693 111.249 74.4126 111.288 74.2168C111.327 74.021 111.562 60.666 111.523 60.3918C111.484 60.1177 111.445 59.8827 111.406 59.6477C111.366 59.4127 111.288 59.2561 111.17 59.1777C110.935 58.9036 109.916 58.2378 109.916 58.2378H122.809L124.18 61.5276C124.18 61.5276 121.672 59.726 120.536 59.1777C120.262 59.0602 119.752 59.0211 119.008 58.9036C118.263 58.8253 114.58 58.8644 114.423 58.8644C114.384 59.1386 114.305 66.3839 114.305 66.4623C114.384 66.4623 117.166 66.4623 117.401 66.4231C117.871 66.3056 118.302 66.1881 118.616 65.9923C118.929 65.7965 119.203 65.5615 119.399 65.2874C119.595 65.0132 120.497 63.6425 120.497 63.6425V70.1046C120.497 70.1046 119.047 68.1855 118.772 67.9114C118.498 67.6764 118.185 67.5197 117.832 67.4022C117.479 67.2456 117.048 67.2456 116.539 67.2064C116.304 67.2064 114.58 67.2064 114.305 67.2064C114.266 67.4414 114.344 73.3552 114.384 73.8252C114.423 74.2951 114.501 74.4909 114.658 74.7259C114.815 74.9609 115.246 75.0392 115.834 75.0784C116.931 75.1959 120.614 75.1567 121.398 74.8043C121.829 74.6084 122.26 74.4909 122.652 74.1385C123.044 73.786 125.121 71.7886 125.121 71.7886L124.063 75.8225Z" fill="#171717"/>
<path d="M142.283 59.7262C141.931 59.4129 141.578 59.1779 141.186 59.0604C140.794 58.9429 140.285 58.9038 139.658 58.8646C139.345 58.8646 139.07 58.8646 138.835 58.8646C138.6 58.8646 138.365 58.8646 138.169 58.8646C137.973 58.8646 137.738 58.8646 137.464 58.8646C137.228 58.8646 136.915 58.8646 136.562 58.8646C136.562 59.2562 136.562 59.8437 136.562 60.5095C136.562 61.2145 136.562 61.9586 136.562 62.7027C136.562 63.486 136.562 64.2301 136.562 64.9742C136.562 65.7183 136.562 66.345 136.562 66.8149V72.2588C136.562 72.7287 136.562 73.1987 136.602 73.6295C136.641 74.0603 136.719 74.3736 136.837 74.5303C137.072 74.8828 138.639 75.7836 138.639 75.7836H131.664C131.664 75.7836 133.153 74.9219 133.506 74.4911C133.584 74.4128 133.663 74.2561 133.702 74.0995C133.741 73.9037 133.78 73.7078 133.819 73.4729C133.859 73.2379 133.859 72.9637 133.859 72.6896C133.859 72.4154 133.859 72.1413 133.859 71.8671C133.859 71.6321 133.859 71.3188 133.859 70.9663C133.859 70.5747 133.859 70.1831 133.898 69.7131C133.898 69.2431 133.898 68.7732 133.898 68.3032C133.898 67.8332 133.898 67.3632 133.898 66.8933V58.7863C133.545 58.7863 133.271 58.7863 132.996 58.7863C132.761 58.7863 132.526 58.7863 132.291 58.7863C132.095 58.7863 131.86 58.7863 131.625 58.7863C131.39 58.7863 131.116 58.7863 130.802 58.7863C130.175 58.7863 129.666 58.8646 129.274 59.0213C128.882 59.1388 128.49 59.3737 128.177 59.687C128.059 59.8045 126.178 61.8802 126.178 61.8802L126.766 58.003C127.158 58.0813 143.459 58.003 143.851 57.8855L144.556 61.9194C144.478 62.0369 142.44 59.8437 142.283 59.7262Z" fill="#171717"/>
<path d="M158.115 73.1203C157.802 73.7469 157.371 74.256 156.783 74.726C156.234 75.1568 155.568 75.5093 154.785 75.7051C154.001 75.9009 153.139 76.0184 152.198 76.0184C151.415 76.0184 150.709 75.9793 150.161 75.8618C149.573 75.7834 149.103 75.666 148.75 75.5093C148.358 75.3526 148.084 75.2352 147.888 75.1177C147.692 75.0002 147.574 74.961 147.535 74.961C147.496 74.961 146.556 75.8226 146.556 75.8226L146.477 71.3579C146.477 71.3579 147.77 73.042 148.045 73.3944C148.319 73.7469 148.593 74.0994 148.907 74.3735C149.22 74.6477 149.494 74.8435 149.769 75.0002C150.043 75.1568 151.493 75.3918 151.924 75.3918C153.139 75.3918 154.353 75.3135 155.137 74.6477C155.882 73.9819 156.274 73.0811 156.274 71.9845C156.274 71.5146 156.195 71.1229 156.038 70.7704C155.882 70.418 155.686 70.1438 155.451 69.8696C155.216 69.6347 154.902 69.3997 154.549 69.2039C154.197 69.008 153.844 68.8514 153.452 68.7339C153.06 68.5772 152.708 68.4597 152.433 68.3814C152.159 68.2639 151.885 68.1856 151.61 68.1073C151.375 68.0289 151.101 67.9114 150.827 67.8331C150.552 67.7548 150.239 67.6373 149.847 67.4806C149.416 67.324 149.024 67.089 148.632 66.8148C148.24 66.5407 147.888 66.1882 147.614 65.7966C147.339 65.4049 147.065 64.9741 146.908 64.5433C146.712 64.0733 146.634 63.6034 146.634 63.0551C146.634 62.1935 146.791 61.4102 147.104 60.7836C147.418 60.1569 147.849 59.6086 148.397 59.1778C148.946 58.747 149.573 58.4337 150.278 58.2379C150.983 58.0421 151.728 57.9246 152.512 57.9246C153.256 57.9246 153.883 58.0029 154.393 58.1204C154.902 58.2379 155.333 58.3945 155.686 58.512C156.038 58.6687 156.274 58.7862 156.43 58.9037C156.587 59.0212 156.705 59.0995 156.705 59.0995C156.744 59.0995 157.723 58.2379 157.723 58.2379V62.1151C157.723 62.1151 156.038 60.1569 155.607 59.7261C155.216 59.2953 155.02 59.1387 154.51 58.8645C154.001 58.5904 152.864 58.512 152.237 58.512C151.728 58.512 151.258 58.5904 150.827 58.747C150.396 58.9037 150.239 58.9037 149.886 59.217C149.534 59.4911 149.299 59.8828 149.103 60.3136C148.907 60.7444 148.828 61.2535 148.828 61.8018C148.828 62.6634 149.103 63.3684 149.612 63.8775C150.121 64.3867 150.788 64.8175 151.65 65.1308C151.963 65.2483 152.277 65.3658 152.551 65.4833C152.825 65.6008 153.1 65.6791 153.374 65.7574C153.648 65.8357 153.922 65.9532 154.197 66.0316C154.471 66.1099 154.785 66.2274 155.098 66.3449C156.195 66.7365 157.057 67.324 157.684 68.1073C158.311 68.8905 158.586 69.8305 158.586 71.0054C158.625 71.7887 158.468 72.4937 158.115 73.1203Z" fill="#171717"/>
<defs>
<linearGradient id="paint0_linear" x1="79.2684" y1="0.466172" x2="79.2684" y2="53.9259" gradientUnits="userSpaceOnUse">
<stop stop-color="#F39201"/>
<stop offset="1" stop-color="#F07F01"/>
</linearGradient>
</defs>
</svg>
